# xmcd
#
# Track frame offsets:
#	150
#	20192
#	38662
#	56660
#	67637
#	84910
#	101112
#	119685
#	136852
#	150855
#	166555
#	184285
#
# Disc length: 2701 seconds
#
# Revision: 1
# Processed by: cddbd v1.5.2PL0 Copyright (c) Steve Scherf et al.
# Submitted via: EasyCDDAExtractor 11.1.0.1
#
DISCID=8f0a8b0c
DTITLE=Osmar Zan - Sax Sertanejo
DYEAR=1900
DGENRE=Instrumental
TTITLE0=Um Homem Quando Ama
TTITLE1=Pão De Mel
TTITLE2=Foi A Primeira Vez
TTITLE3=Quando A Agente Ama Demais
TTITLE4=Loucuras De Amor
TTITLE5=Não Precisa Perdão
TTITLE6=Estou Apaixonado
TTITLE7=Depois Do Seu Adeus
TTITLE8=Na Hora H
TTITLE9=Eu Juro
TTITLE10=O Que A Vida Faz Comigo
TTITLE11=O Que é que a Gente Não Faz Por Amor
EXTD=
EXTT0=
EXTT1=
EXTT2=
EXTT3=
EXTT4=
EXTT5=
EXTT6=
EXTT7=
EXTT8=
EXTT9=
EXTT10=
EXTT11=
PLAYORDER=
